<?xml version="1.0" standalone="no"?>
<!DOCTYPE svg PUBLIC "-//W3C//DTD SVG 20010904//EN"
 "http://www.w3.org/TR/2001/REC-SVG-20010904/DTD/svg10.dtd">
<svg version="1.0" xmlns="http://www.w3.org/2000/svg"
 width="174.000000pt" height="174.000000pt" viewBox="0 0 174.000000 174.000000"
 preserveAspectRatio="xMidYMid meet">
<metadata>
Created by potrace 1.11, written by Peter Selinger 2001-2013
</metadata>
<g transform="translate(0.000000,174.000000) scale(0.100000,-0.100000)"
fill="#000000" stroke="none">
<path d="M1314 1363 c-3 -10 -10 -29 -15 -43 -5 -14 -11 -41 -14 -60 -8 -48
-45 -110 -70 -116 -20 -5 -135 31 -135 43 0 3 7 3 15 -1 17 -6 19 0 5 17 -6 7
-19 24 -31 40 -11 15 -28 27 -36 27 -9 0 -13 3 -10 6 7 8 -25 35 -70 58 -37
18 -47 20 -38 6 3 -5 1 -10 -4 -10 -6 0 -11 4 -11 9 0 5 -9 11 -20 14 -11 3
-20 0 -20 -6 0 -9 -2 -9 -8 -1 -10 15 -54 26 -45 11 4 -7 0 -8 -11 -4 -14 6
-17 3 -12 -8 3 -9 2 -14 -3 -11 -5 3 -12 -1 -15 -10 -3 -8 -10 -13 -15 -9 -5
3 -12 -4 -14 -15 -4 -17 -4 -17 -3 2 1 14 7 22 15 20 9 -2 11 3 7 13 -3 9 -2
13 4 10 6 -3 10 1 10 9 0 17 -15 22 -24 7 -3 -4 -17 -7 -32 -5 -19 2 -24 -1
-20 -12 3 -8 1 -14 -4 -14 -6 0 -10 5 -10 10 0 6 -5 10 -10 10 -6 0 -10 -7 -8
-16 2 -10 -4 -19 -12 -21 -12 -4 -12 -3 -1 5 9 7 10 12 2 16 -13 8 -65 -43
-84 -82 -17 -35 -21 -96 -7 -122 6 -12 21 -20 36 -20 17 0 23 4 18 13 -4 6 -4
9 1 5 4 -4 16 4 27 17 11 14 25 22 33 18 11 -4 14 0 9 13 -5 16 -4 16 5 4 11
-16 5 -26 -18 -32 -19 -4 -117 -107 -152 -159 -52 -79 -67 -132 -106 -374 -15
-95 -72 -164 -199 -239 -57 -34 -46 -44 30 -27 120 27 194 108 256 283 53 151
100 258 113 258 15 0 104 -69 111 -86 10 -27 -24 -144 -61 -212 -41 -73 -42
-70 57 -138 54 -36 71 -54 76 -78 7 -33 50 -86 70 -86 6 0 14 9 17 20 5 21 27
28 27 9 0 -5 -4 -7 -10 -4 -5 3 -10 1 -10 -5 0 -7 6 -10 13 -7 16 6 11 46 -11
71 -9 11 -11 16 -3 11 18 -11 -17 44 -48 73 -16 16 -22 18 -17 7 3 -9 2 -13
-4 -10 -6 3 -10 12 -10 19 0 7 -10 21 -22 32 -23 19 -23 19 -5 -2 9 -11 17
-24 17 -28 0 -4 -11 5 -23 21 -24 28 -43 78 -26 67 5 -3 9 2 9 10 0 9 5 16 11
16 5 0 8 4 5 9 -3 5 1 12 10 15 10 4 14 14 11 26 -3 11 0 23 5 27 7 3 8 1 4
-5 -4 -7 -2 -12 3 -12 6 0 11 8 11 18 0 9 5 24 11 32 8 12 9 9 4 -10 -6 -23
-5 -24 6 -5 7 11 21 29 31 39 10 11 18 25 18 30 0 6 -5 4 -11 -4 -9 -13 -10
-13 -6 0 2 8 10 15 18 15 17 0 83 89 69 93 -16 6 -11 18 8 18 9 1 50 5 90 9
l72 8 2 -29 c0 -16 2 -42 3 -57 1 -19 -4 -31 -14 -34 -27 -10 -40 -24 -35 -38
4 -10 12 -11 34 -4 34 12 55 35 64 71 3 14 9 34 13 44 5 13 3 15 -8 9 -10 -6
-10 -3 2 11 9 10 20 26 24 34 7 12 6 13 -6 5 -8 -5 1 3 21 20 59 50 87 83 119
139 23 41 37 56 59 61 16 3 33 5 38 3 5 -1 26 1 47 5 59 12 49 37 -39 96 -42
28 -82 51 -89 51 -10 0 -12 9 -8 35 8 49 -29 91 -43 48z m-591 -38 c-7 -21
-12 -19 -10 4 0 11 5 18 9 15 4 -3 5 -11 1 -19z m135 -5 c4 3 8 -6 9 -20 l2
-25 -8 25 c-5 14 -10 21 -10 15 -1 -5 -8 -2 -15 8 -9 11 -17 14 -20 8 -4 -6
-21 -20 -39 -32 -26 -17 -25 -15 8 14 37 33 41 34 53 19 7 -9 16 -15 20 -12z
m30 -5 c-3 -3 -9 2 -12 12 -6 14 -5 15 5 6 7 -7 10 -15 7 -18z m72 5 c13 -8
13 -10 -2 -10 -9 0 -20 5 -23 10 -8 13 5 13 25 0z m-275 -20 c-27 -12 -43 -12
-25 0 8 5 22 9 30 9 10 0 8 -3 -5 -9z m156 -7 c13 -17 13 -17 -6 -3 -11 8 -22
16 -24 17 -2 2 0 3 6 3 6 0 17 -8 24 -17z m99 7 c18 -12 2 -12 -25 0 -13 6
-15 9 -5 9 8 0 22 -4 30 -9z m59 -13 c0 -9 -2 -8 -6 1 -2 6 -10 9 -15 6 -7 -4
-8 -2 -4 5 9 13 26 5 25 -12z m-289 -2 c-7 -9 -15 -13 -19 -10 -3 3 1 10 9 15
21 14 24 12 10 -5z m-106 -19 c-3 -9 -10 -16 -15 -16 -5 0 -4 9 3 20 14 22 21
20 12 -4z m219 7 c-2 -8 8 -11 27 -8 17 2 28 0 25 -5 -8 -13 -60 -6 -57 8 1 7
-7 12 -17 12 -14 0 -18 -6 -15 -22 4 -21 4 -21 -5 -3 -4 11 -6 24 -4 28 7 12
48 3 46 -10z m85 -10 c0 -21 -2 -23 -10 -9 -5 9 -6 21 -3 26 10 16 13 12 13
-17z m-258 7 c0 -5 -8 -10 -17 -10 -15 0 -16 2 -3 10 19 12 20 12 20 0z m39
-35 c0 -5 -4 -3 -9 5 -5 8 -9 22 -9 30 0 16 17 -16 18 -35z m238 23 c-3 -8 -6
-5 -6 6 -1 11 2 17 5 13 3 -3 4 -12 1 -19z m71 9 c6 0 12 -5 12 -10 0 -5 -8
-6 -17 -2 -10 4 -24 8 -30 8 -7 0 -13 5 -13 10 0 5 8 6 18 2 9 -4 23 -8 30 -8z
m-273 -7 c-3 -5 -11 -10 -16 -10 -6 0 -7 5 -4 10 3 6 11 10 16 10 6 0 7 -4 4
-10z m24 -7 c-12 -15 -12 -16 4 -10 10 4 16 3 13 -2 -3 -5 1 -11 9 -15 8 -3
19 3 25 12 8 14 9 13 6 -8 -2 -14 -11 -26 -21 -28 -12 -3 -15 0 -10 9 6 9 3
11 -9 6 -9 -4 -15 -3 -12 2 3 5 -1 11 -9 15 -16 6 -10 36 7 36 6 0 4 -8 -3
-17z m-119 -14 c0 -8 4 -8 14 0 12 10 17 8 26 -9 6 -12 9 -24 7 -27 -3 -2 -8
5 -12 16 -3 12 -10 19 -15 16 -5 -3 -7 -12 -3 -20 8 -23 -22 -18 -43 8 -19 22
-19 22 2 5 28 -24 41 -23 19 2 -10 11 -13 20 -7 20 7 0 12 -5 12 -11z m255 1
c-9 -15 38 -12 54 3 9 8 12 8 7 0 -3 -6 0 -13 6 -16 7 -2 -9 -5 -37 -5 -27 0
-60 -4 -72 -7 -14 -5 -23 -3 -23 4 0 6 7 8 17 4 11 -4 14 -3 9 5 -4 8 -2 10 7
6 8 -3 18 -1 22 5 3 6 8 11 11 11 3 0 2 -4 -1 -10z m101 -13 c1 -9 -2 -17 -8
-17 -6 0 -8 6 -5 14 3 8 2 17 -4 20 -5 2 -4 3 2 2 7 -1 13 -10 15 -19z m81 -9
c3 -19 -1 -28 -10 -28 -17 0 -42 28 -33 37 3 3 6 2 6 -4 0 -6 7 -14 15 -17 11
-4 15 0 13 12 -2 9 -12 20 -23 24 -17 6 -17 7 4 5 18 -2 25 -9 28 -29z m-476
-13 c5 4 12 -1 15 -9 3 -9 10 -13 15 -10 5 3 6 -3 2 -13 -6 -17 -5 -17 15 1
12 11 24 17 26 15 2 -2 -7 -12 -20 -22 -23 -17 -24 -17 -36 7 -7 14 -17 24
-23 23 -5 -1 -10 7 -11 18 -1 16 0 16 3 2 3 -9 9 -15 14 -12z m135 23 c4 -6 3
-8 -3 -5 -6 4 -14 0 -17 -9 -4 -11 -1 -14 12 -10 9 3 23 2 30 -2 9 -6 5 -12
-13 -20 -15 -7 -24 -8 -21 -3 3 5 -1 12 -9 15 -13 4 -14 10 -5 26 12 23 16 24
26 8z m281 -10 c-3 -8 -6 -5 -6 6 -1 11 2 17 5 13 3 -3 4 -12 1 -19z m-432
-38 c3 -5 1 -10 -4 -10 -6 0 -11 5 -11 10 0 6 2 10 4 10 3 0 8 -4 11 -10z m28
-23 c3 -8 2 -20 -3 -26 -5 -9 -7 -4 -7 13 0 29 2 32 10 13z m320 -314 c-24
-40 -26 -41 -18 -13 6 21 21 39 33 40 1 0 -5 -12 -15 -27z m17 -13 c-6 -11
-13 -20 -16 -20 -2 0 0 9 6 20 6 11 13 20 16 20 2 0 0 -9 -6 -20z m-20 -34 c0
-2 -7 -7 -16 -10 -8 -3 -12 -2 -9 4 6 10 25 14 25 6z m-60 -362 c0 -8 -19 -13
-24 -6 -3 5 1 9 9 9 8 0 15 -2 15 -3z"/>
</g>
</svg>
